<?xml version="1.0" encoding="UTF-8"?><svg id="Calque_2" xmlns="http://www.w3.org/2000/svg" viewBox="0 0 269 269"><defs><style>.cls-1{opacity:.05;}.cls-2{fill:#b3b3b3;opacity:.15;}</style></defs><g id="Calque_1-2"><path class="cls-2" d="m269,134.5c0,74.28-60.22,134.5-134.5,134.5-40,0-75.92-17.46-100.55-45.18C12.83,200.06,0,168.78,0,134.5,0,60.22,60.22,0,134.5,0c27.66,0,53.37,8.35,74.75,22.68,36.03,24.12,59.75,65.2,59.75,111.82Z"/><g class="cls-1"><path d="m269,134.5c0,74.28-60.22,134.5-134.5,134.5-40,0-75.92-17.46-100.55-45.18,4.81-5.7,10.64-10.12,17.84-10,13.08.2,23.54,15.81,36.24,12.61,11.76-2.96,13.68-18.76,12.34-30.82-1.33-12.06-1.96-27.22,8.69-33.04,12.01-6.55,25.55,5.48,33.4,16.69,7.86,11.21,19.06,24.48,32.22,20.73-5.46-28.19-10.92-56.37-16.37-84.55-2.58-13.3-5.17-26.79-4.15-40.3,1.01-13.5,6.07-27.26,16.45-35.97,10.73-9,25.52-11.49,38.64-16.49,36.03,24.12,59.75,65.2,59.75,111.82Z"/></g></g></svg>